<?xml version="1.0" encoding="UTF-8" standalone="no"?>
<svg
   xmlns:dc="http://purl.org/dc/elements/1.1/"
   xmlns:cc="http://creativecommons.org/ns#"
   xmlns:rdf="http://www.w3.org/1999/02/22-rdf-syntax-ns#"
   xmlns:svg="http://www.w3.org/2000/svg"
   xmlns="http://www.w3.org/2000/svg"
   viewBox="0 0 1020 448"
   height="448"
   width="1020"
   xml:space="preserve"
   id="svg2"
   version="1.1"><metadata
     id="metadata8"><rdf:RDF><cc:Work
         rdf:about=""><dc:format>image/svg+xml</dc:format><dc:type
           rdf:resource="http://purl.org/dc/dcmitype/StillImage" /><dc:title></dc:title></cc:Work></rdf:RDF></metadata><defs
     id="defs6" /><g
     transform="matrix(1.3333333,0,0,-1.3333333,0,448)"
     id="g10"><g
       transform="scale(0.1)"
       id="g12"><path
         id="path14"
         style="fill:#040606;fill-opacity:1;fill-rule:nonzero;stroke:none"
         d="m 3699.75,856.301 c 400.45,-11.879 763.62,3.379 993.67,249.269 l 45.97,41.86 -427.55,613.96 371.78,569.31 c -7.18,0.2 -14.67,0.44 -22.63,0.76 -241.04,12.15 -398.38,134.21 -619.7,139.32 L 3699.75,856.301" /><path
         id="path16"
         style="fill:#040606;fill-opacity:1;fill-rule:nonzero;stroke:none"
         d="m 7380.51,1727.78 c -535.3,78.18 -1045.62,180.8 -1436.35,395.5 -133.04,73.09 -261.48,163.76 -395.45,218.59 -153.77,62.93 -319.63,57.23 -482.87,35.27 l -398.66,-610.46 322.47,-463.05 c 265.7,92.5 609.31,52.76 954.51,80.66 512.73,41.52 1016.51,229.69 1436.35,343.49" /><path
         id="path18"
         style="fill:#f4f01e;fill-opacity:1;fill-rule:nonzero;stroke:none"
         d="m 5065.84,2377.14 c -97.77,-13.14 -194.62,-32.13 -287.36,-45.68 0,0 -33.14,-2.46 -94.86,-0.76 l -371.78,-569.31 427.55,-613.96 49.49,45.07 c 59.89,49.97 127.37,85.58 200.77,111.13 l -322.47,463.05 398.66,610.46" /><path
         id="path20"
         style="fill:#f4f01e;fill-opacity:1;fill-rule:nonzero;stroke:none"
         d="m 6855.4,1696.11 c -18.11,-7.26 -93.71,-11.86 -113.17,-13.3 -38.45,-2.86 -76.79,-6.65 -115.02,-10.92 -146.01,-16.27 -403.3,-29.99 -550.53,-21.26 -162.12,9.61 -270.7,21.47 -352.8,32.73 -76.97,10.57 -295.93,21.24 -438.01,15.34 -111.65,-4.65 -259.52,-10.07 -306.9,94.38 -9.36,20.66 -5.56,43.14 6.23,63.09 v 0 c 18.22,33.15 57.3,65.81 96.73,83.18 10.56,4.64 18.79,8.23 20.72,9.04 149.73,62.77 290.33,67.79 462.79,32.1 119.66,-24.77 258.66,-76.36 371.71,-116.77 229.56,-82.05 566.2,-171.2 861.81,-167.95 l 56.44,0.34" /><path
         id="path22"
         style="fill:#040606;fill-opacity:1;fill-rule:nonzero;stroke:none"
         d="m 1704.29,1905.72 -47.27,317.41 -183.7,-317.41 z m -118.86,565.95 h 235.02 l 176.95,-944.16 h -237.73 l -35.11,194.51 h -348.5 L 1259.9,1527.51 h -252.59 l 578.12,944.16" /><path
         id="path24"
         style="fill:#040606;fill-opacity:1;fill-rule:nonzero;stroke:none"
         d="m 2186.64,1524.14 c -56.28,11.25 -101.09,26.78 -134.39,46.6 l 45.92,214.76 c 43.23,-25.22 89.83,-44.13 139.8,-56.73 49.98,-12.62 98.82,-18.91 146.55,-18.91 48.63,0 86.22,8.31 112.79,24.99 26.55,16.65 39.85,39.85 39.85,69.56 0,22.5 -10.81,41.41 -32.42,56.74 -21.61,15.29 -62.14,36.46 -121.57,63.47 -67.53,30.61 -117.07,64.16 -148.58,100.63 -31.52,36.48 -47.27,79.02 -47.27,127.65 0,16.21 2.24,36.47 6.75,60.78 18.01,83.74 63.93,151.05 137.78,201.93 73.82,50.87 167.02,76.32 279.6,76.32 57.62,0 108.05,-4.52 151.28,-13.5 43.22,-9.02 83.29,-23.43 120.22,-43.23 l -44.59,-209.36 c -69.34,41.41 -144.52,62.13 -225.56,62.13 -43.22,0 -79.02,-6.98 -107.38,-20.93 -28.37,-13.97 -45.72,-34 -52.01,-60.12 -0.91,-3.6 -1.34,-8.56 -1.34,-14.85 0,-20.72 11.47,-38.73 34.43,-54.03 22.97,-15.32 64.16,-35.58 123.59,-60.78 70.24,-31.53 120.67,-64.16 151.28,-97.93 30.61,-33.76 45.93,-74.97 45.93,-123.59 0,-20.73 -2.7,-44.13 -8.1,-70.24 -18.03,-89.15 -62.14,-157.82 -132.37,-205.98 -70.24,-48.18 -172.45,-72.26 -306.62,-72.26 -59.43,0 -117.3,5.63 -173.57,16.88" /><path
         id="path26"
         style="fill:#040606;fill-opacity:1;fill-rule:nonzero;stroke:none"
         d="m 2941.8,2471.67 h 247.19 l 106.72,-628.09 374.13,628.09 h 262.05 L 3355.14,1527.51 H 3120.1 l -178.3,944.16" /><path
         id="path28"
         style="fill:#040606;fill-opacity:1;fill-rule:nonzero;stroke:none"
         d="M 998.941,1042.99 967.406,1238.08 853.73,1042.99 Z m -64.539,312.43 h 109.278 l 96.07,-512.65 h -110 l -20.54,111.48 H 806.059 L 738.586,842.77 H 620.508 l 313.894,512.65" /><path
         id="path30"
         style="fill:#040606;fill-opacity:1;fill-rule:nonzero;stroke:none"
         d="m 1474.55,935.551 c 20.77,11.98 37.28,28.469 49.5,49.508 l 13.94,66.741 c -2.45,20.04 -11.5,36.3 -27.14,48.77 -15.65,12.46 -34.96,18.7 -57.93,18.7 -29.83,0 -56.24,-9.3 -79.21,-27.87 -22.99,-18.59 -37.66,-43.03 -44.01,-73.34 -2.93,-13.21 -4.4,-25.431 -4.4,-36.669 0,-21.532 6.35,-37.532 19.07,-48.039 12.71,-10.52 33.24,-15.77 61.61,-15.77 24.93,0 47.78,5.977 68.57,17.969 z m -221.12,-64.91 c -27.87,25.91 -41.8,60.621 -41.8,104.148 0,13.68 1.47,28.111 4.4,43.271 7.81,36.67 22.73,69.18 44.74,97.54 22,28.35 48.77,50.47 80.3,66.37 31.54,15.88 65.39,23.84 101.58,23.84 53.78,0 93.38,-14.19 118.81,-42.54 l 7.33,31.53 h 110.74 l -74.8,-352.03 h -107.08 l 8.07,38.14 c -22,-17.121 -44.37,-29.578 -67.11,-37.398 -22.73,-7.821 -48.03,-11.731 -75.9,-11.731 -45,0 -81.41,12.949 -109.28,38.86" /><path
         id="path32"
         style="fill:#040606;fill-opacity:1;fill-rule:nonzero;stroke:none"
         d="m 1747.73,869.539 c -32.26,25.18 -48.4,60.512 -48.4,105.981 0,13.679 1.47,27.87 4.4,42.54 12.71,59.65 41.07,105.85 85.07,138.61 44.01,32.75 98.76,49.14 164.29,49.14 27.87,0 53.04,-2.69 75.54,-8.08 22.48,-5.38 40.81,-13.44 55,-24.19 l -18.33,-87.28 c -13.21,11.24 -29.59,19.55 -49.14,24.94 -19.56,5.37 -40.83,8.07 -63.81,8.07 -34.22,0 -63.43,-8.32 -87.64,-24.94 -24.2,-16.62 -39.97,-42.05 -47.3,-76.27 -2.45,-9.79 -3.67,-20.54 -3.67,-32.271 0,-23.957 7.7,-41.328 23.11,-52.07 15.4,-10.758 39.23,-16.137 71.5,-16.137 47.91,0 92.15,11.477 132.74,34.469 l -18.33,-86.539 c -40.59,-22.492 -90.7,-33.731 -150.35,-33.731 -50.85,0 -92.41,12.578 -124.68,37.758" /><path
         id="path34"
         style="fill:#040606;fill-opacity:1;fill-rule:nonzero;stroke:none"
         d="m 2213.44,1384.76 h 110.74 l -49.14,-230.29 c 20.05,17.11 41.56,29.94 64.54,38.5 22.98,8.55 46.45,12.84 70.41,12.84 37.15,0 65.75,-10.27 85.81,-30.81 20.04,-20.53 30.07,-46.93 30.07,-79.2 0,-9.3 -1.23,-20.06 -3.67,-32.27 L 2476,842.77 h -110.75 l 44.01,208.29 c 1.95,8.31 2.93,16.87 2.93,25.67 0,13.68 -4.03,24.2 -12.1,31.53 -8.07,7.34 -21.15,11.01 -39.24,11.01 -18.58,0 -36.92,-4.53 -55,-13.58 -18.1,-9.05 -34.72,-22.36 -49.87,-39.96 L 2209.04,842.77 H 2098.3 l 115.14,541.99" /><path
         id="path36"
         style="fill:#040606;fill-opacity:1;fill-rule:nonzero;stroke:none"
         d="m 2888.15,1051.06 c 0.98,6.84 1.47,11.98 1.47,15.4 0,39.12 -26.4,58.68 -79.2,58.68 -27.87,0 -51.23,-6.6 -70.04,-19.81 -18.83,-13.2 -31.42,-31.3 -37.77,-54.27 z M 2635.87,869.91 c -33.74,25.422 -50.61,61.121 -50.61,107.07 0,12.219 1.47,25.68 4.4,40.34 12.71,59.15 38.99,105.36 78.85,138.62 39.84,33.24 93.5,49.87 160.98,49.87 35.68,0 65.63,-6.49 89.84,-19.44 24.2,-12.96 42.28,-30.32 54.27,-52.07 11.97,-21.76 17.97,-45.83 17.97,-72.24 0,-12.71 -1.47,-25.43 -4.41,-38.13 l -9.53,-44.739 h -290.42 c -1.96,-44.992 35.2,-67.472 111.47,-67.472 22.49,0 46.21,1.941 71.14,5.863 24.94,3.906 46.94,9.289 66.01,16.137 l -16.87,-77.739 c -18.59,-7.339 -41.81,-13.21 -69.67,-17.601 -27.87,-4.41 -55.26,-6.598 -82.14,-6.598 -53.8,0 -97.55,12.699 -131.28,38.129" /><path
         id="path38"
         style="fill:#040606;fill-opacity:1;fill-rule:nonzero;stroke:none"
         d="m 3103.77,1194.8 h 107.07 l -9.53,-43.27 c 20.04,18.09 42.17,31.65 66.37,40.71 24.2,9.04 48.52,13.57 72.97,13.57 38.14,0 66.98,-10.16 86.55,-30.44 19.54,-20.29 29.33,-46.33 29.33,-78.1 0,-9.3 -1.23,-20.54 -3.66,-33.74 l -46.21,-220.76 h -110.74 l 44,208.29 c 1.95,8.31 2.94,16.87 2.94,25.67 0,14.67 -4.16,25.42 -12.47,32.26 -8.32,6.85 -21.27,10.28 -38.87,10.28 -18.59,0 -36.93,-4.53 -55.01,-13.58 -18.09,-9.05 -34.72,-22.36 -49.87,-39.96 L 3139.7,842.77 h -110.74 l 74.81,352.03" /></g></g></svg>